<?xml version="1.0" standalone="no"?>
<!DOCTYPE svg PUBLIC "-//W3C//DTD SVG 20010904//EN"
 "http://www.w3.org/TR/2001/REC-SVG-20010904/DTD/svg10.dtd">
<svg version="1.0" xmlns="http://www.w3.org/2000/svg"
 width="132.000000pt" height="184.000000pt" viewBox="0 0 132.000000 184.000000"
 preserveAspectRatio="xMidYMid meet">
<metadata>
Created by potrace 1.16, written by Peter Selinger 2001-2019
</metadata>
<g transform="translate(0.000000,184.000000) scale(0.100000,-0.100000)"
fill="#000000" stroke="none">
<path d="M639 1695 c-34 -18 -59 -57 -59 -91 0 -21 -3 -25 -17 -19 -67 28 -71
28 -109 14 -59 -23 -84 -67 -84 -151 0 -68 -1 -69 -22 -61 -13 4 -45 8 -71 8
-42 0 -53 -5 -78 -33 l-29 -32 0 -398 c0 -393 1 -398 24 -465 91 -257 350
-402 618 -346 188 39 357 208 403 401 19 83 22 637 3 656 -27 27 -119 1 -162
-47 -11 -12 -23 -21 -28 -21 -4 0 -8 85 -8 190 0 121 -4 198 -12 214 -6 14
-31 35 -56 48 -43 20 -48 21 -89 6 l-43 -16 0 33 c0 38 -35 95 -70 112 -33 17
-79 16 -111 -2z m112 -54 l29 -29 0 -321 0 -321 -25 -6 c-15 -4 -25 -13 -25
-24 0 -15 9 -17 68 -15 52 2 68 6 70 18 2 10 -6 19 -22 23 l-26 6 0 253 c0
236 1 254 20 278 43 55 121 38 140 -32 6 -23 10 -170 10 -364 l-1 -327 -27 -6
c-79 -17 -126 -39 -172 -81 -63 -57 -101 -128 -108 -206 -4 -53 -3 -59 13 -56
14 3 22 20 31 66 15 73 24 92 72 145 42 46 92 74 162 89 31 6 54 18 60 29 6
10 10 73 10 140 0 108 3 127 22 162 13 22 41 51 64 64 78 46 74 59 74 -259 0
-317 -6 -357 -66 -464 -65 -117 -191 -214 -314 -242 -63 -15 -176 -13 -235 3
-156 41 -280 155 -343 313 l-26 68 -4 376 -3 376 26 31 c45 54 124 37 140 -30
3 -13 4 -97 3 -188 -3 -163 -3 -165 -25 -168 -15 -2 -23 -10 -23 -23 0 -17 8
-19 70 -19 62 0 70 2 70 19 0 13 -8 21 -22 23 l-23 3 -3 278 c-1 180 1 285 8
297 28 53 89 61 130 18 19 -21 20 -34 20 -284 l0 -262 -25 -6 c-22 -6 -37 -35
-17 -36 100 -6 132 -4 137 9 6 15 -11 31 -32 31 -7 0 -13 8 -13 18 -1 131 -1
573 -1 590 1 31 44 72 76 72 16 0 38 -12 56 -29z"/>
</g>
</svg>
