<?xml version="1.0" standalone="no"?>
<!DOCTYPE svg PUBLIC "-//W3C//DTD SVG 20010904//EN"
 "http://www.w3.org/TR/2001/REC-SVG-20010904/DTD/svg10.dtd">
<svg version="1.0" xmlns="http://www.w3.org/2000/svg"
 width="239.000000pt" height="246.000000pt" viewBox="0 0 239.000000 246.000000"
 preserveAspectRatio="xMidYMid meet">
<metadata>
Created by potrace 1.16, written by Peter Selinger 2001-2019
</metadata>
<g transform="translate(0.000000,246.000000) scale(0.100000,-0.100000)"
fill="#000000" stroke="none">
<path d="M1236 2171 c-3 -4 -19 -11 -36 -14 -30 -7 -89 -62 -90 -84 0 -14 -50
-18 -50 -5 0 5 -16 16 -35 25 -47 22 -134 22 -176 0 -37 -20 -89 -69 -89 -83
0 -14 -16 -12 -32 3 -26 25 -87 47 -132 47 -62 0 -108 -21 -159 -72 l-42 -42
0 -516 c0 -562 -2 -534 61 -690 10 -25 28 -62 41 -82 13 -21 23 -40 23 -43 0
-4 13 -20 30 -38 16 -18 30 -35 30 -39 0 -9 79 -88 88 -88 7 0 32 -20 94 -75
10 -8 21 -15 25 -15 4 0 30 -11 58 -24 77 -37 133 -56 165 -56 16 0 32 -5 35
-10 8 -13 258 -13 299 -1 17 5 59 18 94 28 34 10 62 21 62 25 0 5 7 8 16 8 18
0 77 31 82 43 2 4 9 7 16 7 16 0 58 33 136 110 65 64 170 215 170 245 0 8 4
15 9 15 5 0 12 23 16 50 4 28 11 50 15 50 16 0 22 104 26 460 4 278 2 371 -8
390 -27 55 -52 81 -94 100 -41 19 -44 23 -44 59 0 58 -22 143 -42 165 -10 11
-18 23 -18 28 0 4 -7 8 -15 8 -8 0 -15 4 -15 8 0 19 -61 42 -114 42 -53 0
-136 -26 -136 -42 0 -19 -39 -6 -46 14 -7 23 -28 48 -39 48 -4 0 -13 7 -21 15
-9 8 -24 15 -34 15 -10 0 -22 5 -25 10 -8 12 -92 13 -99 1z m112 -78 c59 -38
72 -70 72 -178 l0 -85 -136 0 -136 0 4 103 c3 86 7 106 23 124 50 51 124 67
173 36z m-330 -80 c44 -36 64 -81 60 -134 l-3 -44 -55 -2 c-112 -5 -150 -32
-150 -104 0 -33 36 -126 57 -147 7 -7 13 -17 13 -20 0 -10 57 -72 65 -72 4 0
13 -6 21 -14 7 -8 19 -16 26 -18 19 -7 -22 -54 -63 -72 -62 -27 -94 -19 -154
38 l-30 29 -5 207 c-6 241 0 293 38 336 33 37 44 42 103 43 35 1 52 -5 77 -26z
m682 10 c35 -24 50 -40 50 -52 0 -6 5 -11 10 -11 6 0 10 -28 10 -65 l0 -66
-137 3 c-137 3 -138 3 -141 27 -10 67 30 155 78 174 32 12 106 7 130 -10z
m-1018 -64 c40 -40 48 -80 48 -251 0 -165 -7 -201 -46 -243 -22 -24 -67 -45
-96 -45 -32 0 -98 42 -114 72 -11 20 -14 74 -14 218 0 209 4 229 59 264 40 26
130 17 163 -15z m1159 -213 c19 -8 44 -26 57 -40 22 -26 22 -27 22 -388 0
-199 -4 -375 -9 -392 -45 -157 -60 -192 -107 -259 -19 -26 -34 -50 -34 -53 0
-10 -150 -154 -160 -154 -5 0 -15 -6 -22 -13 -25 -23 -113 -65 -193 -91 -131
-43 -346 -35 -465 16 -65 28 -95 44 -98 51 -2 4 -8 7 -13 7 -16 0 -111 74
-155 121 -75 81 -127 164 -172 279 -25 62 -26 76 -30 313 -4 222 -2 247 12
247 9 0 16 -4 16 -8 0 -5 24 -15 54 -22 45 -11 63 -11 100 0 25 7 46 17 46 21
0 5 5 9 12 9 6 0 19 7 29 16 16 14 18 14 30 -7 17 -33 31 -45 77 -69 84 -44
171 -35 238 26 l37 34 22 -22 c35 -34 53 -48 65 -48 18 0 11 -34 -12 -60 -13
-14 -36 -52 -52 -85 -15 -33 -33 -68 -38 -78 -5 -10 -12 -57 -15 -104 -7 -91
-1 -104 41 -96 21 4 24 12 29 86 4 45 11 83 17 85 5 2 10 13 10 24 0 19 24 70
45 94 6 7 19 24 30 40 11 15 25 32 31 38 26 25 60 52 79 62 96 55 119 63 196
72 60 8 87 15 96 28 11 15 11 21 -1 32 -11 12 -56 16 -203 18 -103 2 -214 6
-245 9 -55 6 -124 35 -168 72 -30 25 -80 98 -80 117 0 9 -4 16 -10 16 -11 0
-14 53 -3 63 3 4 199 7 433 7 346 0 434 -3 461 -14z"/>
</g>
</svg>
