<?xml version="1.0" standalone="no"?>
<!DOCTYPE svg PUBLIC "-//W3C//DTD SVG 20010904//EN"
 "http://www.w3.org/TR/2001/REC-SVG-20010904/DTD/svg10.dtd">
<svg version="1.0" xmlns="http://www.w3.org/2000/svg"
 width="130.000000pt" height="176.000000pt" viewBox="0 0 130.000000 176.000000"
 preserveAspectRatio="xMidYMid meet">
<metadata>
Created by potrace 1.16, written by Peter Selinger 2001-2019
</metadata>
<g transform="translate(0.000000,176.000000) scale(0.100000,-0.100000)"
fill="#000000" stroke="none">
<path d="M610 1677 c-13 -7 -35 -28 -47 -46 -22 -33 -23 -41 -23 -279 0 -229
-1 -244 -17 -236 -10 4 -40 9 -66 12 -46 4 -50 2 -88 -37 -33 -35 -42 -40 -58
-31 -31 16 -93 12 -128 -10 -50 -30 -56 -65 -51 -321 4 -215 5 -227 31 -294
78 -199 256 -332 462 -343 112 -6 184 9 277 55 127 64 227 186 273 333 14 45
19 107 22 332 3 153 2 294 -1 313 -9 45 -42 55 -105 32 -25 -9 -47 -15 -48
-13 -2 2 15 70 37 152 22 82 40 155 40 162 0 29 -34 84 -61 97 -15 8 -47 15
-70 15 -33 0 -47 -6 -73 -32 -27 -28 -38 -56 -75 -195 -24 -90 -48 -160 -52
-157 -5 3 -9 97 -9 209 0 112 -4 215 -10 229 -20 53 -104 81 -160 53z m104
-48 l26 -20 0 -328 0 -328 -26 -12 c-45 -20 -23 -35 51 -35 74 0 96 15 51 35
-18 8 -26 20 -26 36 0 25 112 457 132 506 28 71 134 65 152 -9 6 -22 -56 -274
-105 -427 -14 -44 -19 -89 -19 -172 0 -119 -2 -125 -49 -125 -33 0 -139 -61
-172 -98 -44 -49 -77 -127 -81 -187 -2 -40 0 -50 14 -53 12 -2 19 5 23 25 17
86 29 120 55 156 40 55 95 92 165 112 33 10 65 22 72 27 7 5 12 58 15 143 3
130 4 134 33 177 34 47 93 85 118 75 15 -6 17 -33 17 -259 0 -139 -5 -282 -10
-318 -15 -95 -71 -203 -144 -276 -105 -105 -221 -150 -370 -142 -156 9 -282
78 -369 200 -59 84 -88 164 -94 266 l-6 82 38 -16 c44 -18 88 -13 125 15 24
19 25 19 51 0 61 -43 141 -29 179 33 19 32 20 49 20 459 l0 426 25 27 c30 32
72 34 109 5z m-189 -572 c22 -32 21 -293 -1 -325 -38 -55 -121 -44 -143 18
-12 36 -9 273 4 304 21 47 108 49 140 3z m-218 -49 c22 -20 23 -29 23 -143 0
-108 -2 -124 -20 -143 -33 -35 -84 -33 -117 4 -21 23 -23 35 -23 140 0 109 1
116 25 139 31 32 80 33 112 3z"/>
</g>
</svg>
